<svg width="20" height="25" viewBox="0 0 20 25" fill="none" xmlns="http://www.w3.org/2000/svg">
<path fill-rule="evenodd" clip-rule="evenodd" d="M19.534 10.4331C19.1202 9.71656 18.3621 9.48102 17.6383 9.37982C16.9087 9.2778 15.9322 9.27783 14.7512 9.27787L14.684 9.27787C13.9807 9.27787 13.5209 9.27094 13.1859 9.22436C12.883 9.18224 12.7867 9.1199 12.7456 9.08353C12.7154 9.05216 12.6618 8.97881 12.6253 8.71432C12.5822 8.40247 12.5804 7.97484 12.5804 7.28948V6.87151C12.5804 5.09967 12.5804 3.68028 12.444 2.66832C12.316 1.71845 12.0118 0.651623 10.958 0.328684C9.92268 0.0114168 9.05434 0.691741 8.37938 1.39312C7.66034 2.14029 6.8062 3.29596 5.73678 4.74292L2.23557 9.48001C1.55437 10.4016 0.986506 11.1698 0.648156 11.8051C0.308987 12.4419 0.0621521 13.198 0.438362 13.9523L0.439671 13.9551L0.443638 13.9632L0.448145 13.9721L0.45258 13.9807L0.457434 13.9898L0.462369 13.9989L0.467042 14.0073L0.471981 14.0159L0.476506 14.0237L0.478166 14.0264C0.888338 14.7368 1.64323 14.9855 2.37356 15.097C3.12618 15.2119 4.13043 15.2192 5.34837 15.2192C6.05889 15.2192 6.51194 15.2208 6.84467 15.2633C7.1386 15.3007 7.2265 15.3585 7.26419 15.3918C7.29756 15.4267 7.35609 15.5081 7.39737 15.7822C7.4446 16.0958 7.45201 16.5301 7.452 17.2077L7.45199 17.6255C7.45194 19.3973 7.4519 20.8167 7.58825 21.8287C7.71624 22.7786 8.02048 23.8454 9.07429 24.1684C10.1096 24.4857 10.9779 23.8053 11.6529 23.104C12.372 22.3568 13.2261 21.2011 14.2956 19.7541L17.7548 15.0739C18.4588 14.1214 19.0378 13.3256 19.3793 12.6633C19.7135 12.0151 19.9466 11.2546 19.5738 10.5072L19.5726 10.5045L19.5686 10.4964L19.564 10.4874L19.5596 10.4788L19.5547 10.4697L19.5498 10.4606L19.5451 10.4521L19.5401 10.4434L19.5356 10.4357L19.534 10.4331ZM9.58568 2.55399C8.95178 3.2127 8.16184 4.2785 7.04155 5.79422L3.62389 10.4183C2.88984 11.4114 2.39871 12.0797 2.1258 12.5921C1.99297 12.8415 1.94311 12.9989 1.92891 13.0941C1.92014 13.1529 1.92549 13.1795 1.9325 13.1965C1.95949 13.2363 2.0767 13.3581 2.62624 13.442C3.22659 13.5336 4.08981 13.5451 5.34837 13.5451L5.39968 13.5451C6.04382 13.545 6.60507 13.545 7.0564 13.6025C7.53987 13.6642 8.02012 13.8044 8.41776 14.1783L8.42426 14.1845L8.43064 14.1907C8.82129 14.5742 8.98008 15.0496 9.05286 15.5329C9.12242 15.9948 9.12617 16.563 9.12616 17.2077L9.12615 17.5532C9.12612 19.4136 9.128 20.7189 9.24742 21.6052C9.30688 22.0465 9.38687 22.3053 9.46345 22.4499C9.52085 22.5582 9.55389 22.5653 9.56316 22.5673L9.56483 22.5677L9.56652 22.5683C9.57821 22.5723 9.61935 22.5865 9.74622 22.5227C9.90472 22.4429 10.1311 22.2709 10.4466 21.9431C11.0805 21.2844 11.8705 20.2186 12.9908 18.7028L16.4085 14.0788C17.1384 13.0913 17.6246 12.4133 17.8913 11.8961C18.1198 11.4529 18.0949 11.3028 18.0797 11.2629C18.0546 11.2263 17.9421 11.1127 17.4065 11.0378C16.807 10.954 15.9492 10.952 14.684 10.952C14.0111 10.952 13.4276 10.9482 12.9554 10.8826C12.4678 10.8148 11.9865 10.668 11.5923 10.2973L11.5858 10.2912L11.5794 10.2849C11.1852 9.89798 11.0331 9.42314 10.9669 8.94336C10.9061 8.50325 10.9062 7.95823 10.9062 7.34344L10.9062 6.94382C10.9062 5.08339 10.9043 3.77816 10.7849 2.8919C10.7254 2.4506 10.6454 2.19174 10.5688 2.04718C10.5114 1.93885 10.4784 1.93175 10.4691 1.92976L10.4675 1.92937L10.4658 1.9288C10.4541 1.92477 10.4129 1.91057 10.2861 1.97441C10.1276 2.05416 9.90119 2.22614 9.58568 2.55399Z" fill="#FFE818"/>
</svg>
