<svg width="20" height="24" viewBox="0 0 20 24" fill="none" xmlns="http://www.w3.org/2000/svg">
<path d="M2.00343 9.49724L5.678 4.52559C8.05323 1.31193 9.24085 -0.294901 10.3489 0.0446561C11.4569 0.384213 11.4569 2.35499 11.4569 6.29654V6.66818C11.4569 8.08982 11.4569 8.80063 11.9112 9.2465L11.9352 9.26959C12.3992 9.70604 13.1391 9.70604 14.6187 9.70604C17.2813 9.70604 18.6127 9.70604 19.0626 10.5136C19.0701 10.5269 19.0773 10.5404 19.0843 10.554C19.5091 11.374 18.7382 12.417 17.1965 14.5028L13.522 19.4744C11.1467 22.6881 9.95904 24.2949 8.85101 23.9553C7.74297 23.6158 7.743 21.645 7.74306 17.7034L7.74307 17.3319C7.74309 15.9102 7.7431 15.1994 7.28885 14.7535L7.26482 14.7305C6.80076 14.294 6.06094 14.294 4.5813 14.294C1.91866 14.294 0.587337 14.294 0.137396 13.4865C0.129946 13.4731 0.122704 13.4596 0.115672 13.4461C-0.30907 12.626 0.461763 11.5831 2.00343 9.49724Z" fill="#FFE818"/>
</svg>
