<svg width="28" height="33" viewBox="0 0 28 33" fill="none" xmlns="http://www.w3.org/2000/svg">
<g filter="url(#filter0_d_193_688)">
<path fill-rule="evenodd" clip-rule="evenodd" d="M23.534 10.4331C23.1202 9.71656 22.3621 9.48102 21.6383 9.37982C20.9087 9.2778 19.9322 9.27783 18.7512 9.27787L18.684 9.27787C17.9807 9.27787 17.5209 9.27094 17.1859 9.22436C16.883 9.18224 16.7867 9.1199 16.7456 9.08353C16.7154 9.05216 16.6618 8.97881 16.6253 8.71432C16.5822 8.40247 16.5804 7.97484 16.5804 7.28948V6.87151C16.5804 5.09967 16.5804 3.68028 16.444 2.66832C16.316 1.71845 16.0118 0.651623 14.958 0.328684C13.9227 0.0114168 13.0543 0.691741 12.3794 1.39312C11.6603 2.14029 10.8062 3.29596 9.73678 4.74292L6.23557 9.48001C5.55437 10.4016 4.98651 11.1698 4.64816 11.8051C4.30899 12.4419 4.06215 13.198 4.43836 13.9523L4.43967 13.9551L4.44364 13.9632L4.44814 13.9721L4.45258 13.9807L4.45743 13.9898L4.46237 13.9989L4.46704 14.0073L4.47198 14.0159L4.47651 14.0237L4.47817 14.0264C4.88834 14.7368 5.64323 14.9855 6.37356 15.097C7.12618 15.2119 8.13043 15.2192 9.34837 15.2192C10.0589 15.2192 10.5119 15.2208 10.8447 15.2633C11.1386 15.3007 11.2265 15.3585 11.2642 15.3918C11.2976 15.4267 11.3561 15.5081 11.3974 15.7822C11.4446 16.0958 11.452 16.5301 11.452 17.2077L11.452 17.6255C11.4519 19.3973 11.4519 20.8167 11.5883 21.8287C11.7162 22.7786 12.0205 23.8454 13.0743 24.1684C14.1096 24.4857 14.9779 23.8053 15.6529 23.104C16.372 22.3568 17.2261 21.2011 18.2956 19.7541L21.7548 15.0739C22.4588 14.1214 23.0378 13.3256 23.3793 12.6633C23.7135 12.0151 23.9466 11.2546 23.5738 10.5072L23.5726 10.5045L23.5686 10.4964L23.564 10.4874L23.5596 10.4788L23.5547 10.4697L23.5498 10.4606L23.5451 10.4521L23.5401 10.4434L23.5356 10.4357L23.534 10.4331ZM13.5857 2.55399C12.9518 3.2127 12.1618 4.2785 11.0416 5.79422L7.62389 10.4183C6.88984 11.4114 6.39871 12.0797 6.1258 12.5921C5.99297 12.8415 5.94311 12.9989 5.92891 13.0941C5.92014 13.1529 5.92549 13.1795 5.9325 13.1965C5.95949 13.2363 6.0767 13.3581 6.62624 13.442C7.22659 13.5336 8.08981 13.5451 9.34837 13.5451L9.39968 13.5451C10.0438 13.545 10.6051 13.545 11.0564 13.6025C11.5399 13.6642 12.0201 13.8044 12.4178 14.1783L12.4243 14.1845L12.4306 14.1907C12.8213 14.5742 12.9801 15.0496 13.0529 15.5329C13.1224 15.9948 13.1262 16.563 13.1262 17.2077L13.1262 17.5532C13.1261 19.4136 13.128 20.7189 13.2474 21.6052C13.3069 22.0465 13.3869 22.3053 13.4635 22.4499C13.5208 22.5582 13.5539 22.5653 13.5632 22.5673L13.5648 22.5677L13.5665 22.5683C13.5782 22.5723 13.6193 22.5865 13.7462 22.5227C13.9047 22.4429 14.1311 22.2709 14.4466 21.9431C15.0805 21.2844 15.8705 20.2186 16.9908 18.7028L20.4085 14.0788C21.1384 13.0913 21.6246 12.4133 21.8913 11.8961C22.1198 11.4529 22.0949 11.3028 22.0797 11.2629C22.0546 11.2263 21.9421 11.1127 21.4065 11.0378C20.807 10.954 19.9492 10.952 18.684 10.952C18.0111 10.952 17.4276 10.9482 16.9554 10.8826C16.4678 10.8148 15.9865 10.668 15.5923 10.2973L15.5858 10.2912L15.5794 10.2849C15.1852 9.89798 15.0331 9.42314 14.9669 8.94336C14.9061 8.50325 14.9062 7.95823 14.9062 7.34344L14.9062 6.94382C14.9062 5.08339 14.9043 3.77816 14.7849 2.8919C14.7254 2.4506 14.6454 2.19174 14.5688 2.04718C14.5114 1.93885 14.4784 1.93175 14.4691 1.92976L14.4675 1.92937L14.4658 1.9288C14.4541 1.92477 14.4129 1.91057 14.2861 1.97441C14.1276 2.05416 13.9012 2.22614 13.5857 2.55399Z" fill="#FFE818"/>
</g>
<defs>
<filter id="filter0_d_193_688" x="0.249512" y="0.248535" width="27.5146" height="32" filterUnits="userSpaceOnUse" color-interpolation-filters="sRGB">
<feFlood flood-opacity="0" result="BackgroundImageFix"/>
<feColorMatrix in="SourceAlpha" type="matrix" values="0 0 0 0 0 0 0 0 0 0 0 0 0 0 0 0 0 0 127 0" result="hardAlpha"/>
<feOffset dy="4"/>
<feGaussianBlur stdDeviation="2"/>
<feComposite in2="hardAlpha" operator="out"/>
<feColorMatrix type="matrix" values="0 0 0 0 0 0 0 0 0 0 0 0 0 0 0 0 0 0 0.25 0"/>
<feBlend mode="normal" in2="BackgroundImageFix" result="effect1_dropShadow_193_688"/>
<feBlend mode="normal" in="SourceGraphic" in2="effect1_dropShadow_193_688" result="shape"/>
</filter>
</defs>
</svg>
